<svg width="16" height="16" viewBox="0 0 16 16" fill="none" xmlns="http://www.w3.org/2000/svg">
<g id="mingcute:down-fill" clip-path="url(#clip0_2331_513)">
<g id="Group">
<path id="Vector" fill-rule="evenodd" clip-rule="evenodd" d="M8.70666 10.7068C8.51916 10.894 8.265 10.9992 7.99999 10.9992C7.73499 10.9992 7.48083 10.894 7.29333 10.7068L3.52133 6.93609C3.33382 6.74849 3.22851 6.49409 3.22858 6.22885C3.22864 5.96361 3.33406 5.70926 3.52166 5.52176C3.70926 5.33425 3.96366 5.22894 4.2289 5.229C4.49414 5.22907 4.74849 5.33449 4.93599 5.52209L7.99999 8.58609L11.064 5.52209C11.2525 5.33984 11.5051 5.23892 11.7673 5.24108C12.0295 5.24323 12.2803 5.34828 12.4658 5.5336C12.6513 5.71893 12.7566 5.96969 12.759 6.23189C12.7614 6.49408 12.6607 6.74673 12.4787 6.93542L8.70733 10.7074L8.70666 10.7068Z" fill="white"/>
</g>
</g>
<defs>
<clipPath id="clip0_2331_513">
<rect width="16" height="16" fill="white" transform="matrix(0 -1 1 0 0 16)"/>
</clipPath>
</defs>
</svg>
