<svg width="16" height="16" viewBox="0 0 16 16" fill="none" xmlns="http://www.w3.org/2000/svg">
<g id="mingcute:down-fill" clip-path="url(#clip0_2331_450)">
<g id="Group">
<path id="Vector" fill-rule="evenodd" clip-rule="evenodd" d="M10.7067 7.29333C10.894 7.48083 10.9991 7.735 10.9991 8C10.9991 8.265 10.894 8.51916 10.7067 8.70666L6.93603 12.4787C6.74843 12.6662 6.49403 12.7715 6.22879 12.7714C5.96355 12.7714 5.7092 12.6659 5.52169 12.4783C5.33419 12.2907 5.22888 12.0363 5.22894 11.7711C5.22901 11.5059 5.33443 11.2515 5.52203 11.064L8.58603 8L5.52203 4.936C5.33978 4.74748 5.23886 4.49493 5.24102 4.23273C5.24317 3.97053 5.34822 3.71966 5.53354 3.53417C5.71887 3.34867 5.96963 3.24338 6.23183 3.24098C6.49402 3.23858 6.74667 3.33926 6.93536 3.52133L10.7074 7.29266L10.7067 7.29333Z" fill="white"/>
</g>
</g>
<defs>
<clipPath id="clip0_2331_450">
<rect width="16" height="16" fill="white" transform="matrix(0 -1 1 0 0 16)"/>
</clipPath>
</defs>
</svg>
