<svg version="1.1" id="Layer_1" xmlns="http://www.w3.org/2000/svg" xmlns:xlink="http://www.w3.org/1999/xlink" x="0px" y="0px"
	 width="100%" viewBox="0 0 736 688" enable-background="new 0 0 736 688" xml:space="preserve">
<path fill="#000000" opacity="1.000000" stroke="none" 
	d="
M215.457718,452.456909 
	C198.762543,460.450195 188.023026,472.682404 184.820984,490.953979 
	C183.725647,497.204224 184.716446,503.200928 186.244247,509.199341 
	C186.764679,511.242615 187.911270,513.187439 187.304031,515.486511 
	C180.335709,510.479462 178.019928,488.218262 185.759384,473.074524 
	C191.429596,461.979675 197.635651,456.193420 219.142334,443.582611 
	C205.360748,440.404358 192.870438,435.530609 182.573242,425.058289 
	C185.276352,423.977844 186.612625,425.485077 187.986160,426.300903 
	C209.631454,439.156982 232.716736,441.093353 256.933319,435.932495 
	C281.351074,430.728760 303.801483,419.822113 327.358826,412.134338 
	C343.060303,407.010254 358.863495,402.479218 375.335846,400.645172 
	C382.683807,399.827057 382.731812,399.769348 382.731812,392.476471 
	C382.731720,273.005005 382.720306,153.533539 382.773682,34.062088 
	C382.774780,31.621622 381.658112,28.702944 384.593475,26.692535 
	C387.412598,28.005199 386.947479,30.542913 386.942688,32.733715 
	C386.894104,54.892735 386.781525,77.051613 386.701904,99.210579 
	C386.699677,99.831398 386.863556,100.452812 387.036652,101.697235 
	C390.330627,100.105324 393.420074,98.911354 396.188843,97.198853 
	C399.695129,95.030174 402.737427,95.173882 406.417542,97.066971 
	C424.065735,106.145401 442.134979,114.244400 461.753510,118.143623 
	C470.553528,119.892639 479.410004,121.383034 488.276917,122.758186 
	C492.026855,123.339760 493.745087,124.817520 493.575836,128.892822 
	C492.825562,146.961288 492.253815,165.028610 490.434113,183.042603 
	C487.873810,208.388031 480.716064,232.240479 468.084808,254.395508 
	C454.146637,278.842834 435.481110,298.806641 411.957306,314.367096 
	C404.773773,319.118835 398.340851,321.017853 391.299255,314.686310 
	C390.248138,313.741180 388.968384,312.772797 387.246307,312.806213 
	C385.764679,316.721558 386.897583,320.701019 386.898865,324.637329 
	C386.925354,405.617340 386.960602,486.597382 386.962219,567.577393 
	C386.962250,569.786255 387.330475,572.240906 384.988281,573.967468 
	C382.089539,572.770447 382.772827,570.337891 382.764404,568.369202 
	C382.706055,554.705994 382.507996,541.036377 382.864227,527.382080 
	C382.999756,522.186523 381.241547,520.868225 376.299774,520.938477 
	C358.994507,521.184631 341.682709,521.093811 324.375305,520.928955 
	C321.860291,520.905029 318.192719,522.572876 317.074707,518.760498 
	C316.231995,515.886719 320.624420,513.016052 325.315918,512.996643 
	C342.478363,512.925659 359.641907,512.739136 376.802582,512.885132 
	C381.293396,512.923401 382.912079,511.682037 382.828430,506.961639 
	C382.553925,491.470154 382.653107,475.970123 382.779388,460.474762 
	C382.808716,456.877197 381.972321,455.151642 377.904846,454.799896 
	C363.011749,453.511841 348.152130,451.831299 333.284546,450.254883 
	C319.389923,448.781616 305.529022,446.883698 291.603394,445.834747 
	C270.536835,444.247925 249.415741,442.756317 228.539749,447.936188 
	C224.155624,449.023987 219.929398,450.501770 215.457718,452.456909 
M386.961182,242.500000 
	C386.958832,258.817566 387.751343,275.189331 386.644440,291.431610 
	C386.019226,300.606262 389.616150,305.167877 396.947144,308.780640 
	C399.767334,310.170410 402.021545,310.534088 404.855530,308.988098 
	C411.183960,305.535797 416.833099,301.221588 422.266663,296.523071 
	C444.999390,276.865601 460.470947,252.498779 470.034088,224.119583 
	C479.758942,195.260529 479.404694,165.244995 480.805511,135.408829 
	C480.938568,132.574997 479.852448,131.030457 477.050049,130.572800 
	C475.247284,130.278397 473.491028,129.655014 471.683014,129.443466 
	C448.502167,126.731392 427.101288,118.738983 406.920288,107.336044 
	C402.928040,105.080307 399.891357,105.477142 395.815918,107.228424 
	C388.658081,110.304237 386.473389,114.392639 386.620361,122.619926 
	C387.328033,162.236008 386.953339,201.871429 386.961182,242.500000 
M317.408417,424.025726 
	C305.540649,428.405426 293.672882,432.785156 280.657440,437.588409 
	C299.327393,438.693146 316.654785,440.509460 333.980408,442.469330 
	C348.484344,444.109955 363.019836,445.709595 377.663910,445.887604 
	C381.651123,445.936066 382.924011,444.541962 382.787018,440.674896 
	C382.551514,434.026215 382.708893,427.363342 382.713318,420.706451 
	C382.721375,408.585571 382.724976,408.585022 370.977356,409.561066 
	C369.988892,409.643188 368.983154,409.648468 368.016510,409.843384 
	C351.052887,413.263672 334.467194,418.045929 317.408417,424.025726 
z"/>
<path fill="#000000" opacity="1.000000" stroke="none" 
	d="
M259.561523,146.494263 
	C270.848541,137.977341 283.875000,136.070648 297.004059,134.697784 
	C309.078003,133.435226 321.227325,132.754410 333.087311,129.969345 
	C336.720215,129.116241 337.952881,130.425613 338.115906,133.874741 
	C338.752380,147.338287 339.111694,160.830154 340.280518,174.249954 
	C342.270142,197.094193 343.036041,220.051773 346.387268,242.770462 
	C346.895660,246.217010 347.703430,249.647583 348.699615,252.988083 
	C350.755066,259.880890 354.671661,262.671600 361.928833,262.716736 
	C363.759796,262.728119 365.593872,262.544952 367.422241,262.598206 
	C369.321167,262.653473 372.227112,260.867340 372.544586,264.397949 
	C372.811859,267.370697 371.772034,269.807098 368.006958,270.333466 
	C359.943695,271.460754 351.928864,272.932770 343.890900,274.243286 
	C340.122955,274.857605 336.323517,275.304993 332.581909,276.047424 
	C328.865417,276.784912 327.094299,275.846649 326.816284,271.670624 
	C326.009888,259.558777 324.662109,247.482254 323.906982,235.368179 
	C323.665710,231.497650 322.490417,230.194580 318.570892,230.255417 
	C305.246643,230.462265 291.915771,230.448898 278.590881,230.266159 
	C274.944885,230.216171 272.863800,231.588058 270.971039,234.606216 
	C263.801025,246.039215 256.552368,257.460907 245.803329,266.038574 
	C229.768646,278.834229 205.029053,280.275909 187.596924,269.463776 
	C182.803146,266.490479 182.618820,265.714172 186.192276,261.596588 
	C188.592453,258.830933 191.174408,256.223419 193.660583,253.531830 
	C195.108429,251.964310 196.326248,251.450409 198.191330,253.305664 
	C213.639893,268.672821 229.659561,268.548645 245.384277,253.056152 
	C255.451935,243.137161 262.996063,231.333466 270.105682,219.280716 
	C284.236572,195.325027 298.105469,171.214798 312.067841,147.159836 
	C312.466980,146.472137 312.699738,145.687851 312.965332,145.055191 
	C312.578278,144.600586 312.393799,144.169205 312.161255,144.141495 
	C300.555908,142.759003 288.947571,141.810837 277.744629,146.332794 
	C264.506744,151.676102 258.483429,162.170135 257.508575,175.862778 
	C257.261841,179.328278 256.111328,181.344894 252.963318,182.725601 
	C248.133957,184.843750 243.454285,187.303162 237.494186,190.211563 
	C238.922791,171.796555 245.833420,157.649643 259.561523,146.494263 
M300.499756,222.036865 
	C305.659058,222.040924 310.818451,222.023315 315.977600,222.054306 
	C323.082733,222.096970 323.242798,221.782745 322.552032,214.934830 
	C321.202118,201.552368 320.149414,188.139679 318.765747,174.761002 
	C318.143768,168.747269 318.335236,162.604675 316.449036,155.658737 
	C303.601471,178.065109 291.261871,199.585571 278.388763,222.036453 
	C286.248352,222.036453 292.874207,222.036453 300.499756,222.036865 
z"/>
<path fill="#000000" opacity="1.000000" stroke="none" 
	d="
M409.610504,513.140930 
	C408.380524,512.968384 407.548920,512.875244 406.760223,512.638794 
	C406.315369,512.505371 405.941132,512.136230 405.093781,511.587646 
	C409.640900,507.045197 413.778107,502.793182 418.062256,498.694672 
	C419.642395,497.182953 421.859161,497.741272 423.830322,497.715942 
	C435.185242,497.570129 440.142059,494.310913 444.367340,483.748535 
	C448.912109,472.387543 450.543091,460.281891 452.968445,448.395569 
	C456.755646,429.835144 460.194458,411.203064 464.069916,392.661713 
	C464.908417,388.650238 463.423157,387.991394 460.117126,388.050049 
	C455.286896,388.135773 450.453644,388.084961 445.622101,388.044067 
	C444.014618,388.030426 442.296722,388.324646 440.315033,386.540405 
	C447.080200,380.510529 450.768005,371.635315 462.558655,372.438690 
	C477.982361,373.489685 493.532104,372.690613 509.027649,372.687561 
	C510.816284,372.687195 512.604919,372.687531 514.044861,372.687531 
	C515.138000,374.718201 514.117126,375.504974 513.295105,376.280762 
	C511.357056,378.109833 509.069855,379.649445 507.448273,381.717346 
	C503.375641,386.911072 498.276764,389.074402 491.764984,388.081757 
	C487.703857,387.462646 485.851776,389.206207 485.075073,393.360321 
	C481.622742,411.825073 477.672974,430.197296 474.268768,448.670410 
	C470.632660,468.401886 462.603760,485.394379 445.744537,497.295868 
	C445.386383,497.548676 445.160431,497.988647 444.466583,498.839417 
	C455.641449,498.920929 466.336273,498.976685 478.227112,500.571106 
	C473.206055,505.748413 469.071472,510.165924 464.743561,514.385132 
	C463.353516,515.740295 461.241516,515.247864 459.436584,515.177063 
	C442.965668,514.530701 426.496490,513.838867 409.610504,513.140930 
z"/>
<path fill="#000000" opacity="1.000000" stroke="none" 
	d="
M296.250854,533.489441 
	C278.226166,541.545227 250.050232,530.964233 246.323059,504.690735 
	C243.816055,487.018402 255.080444,470.737091 274.173035,465.266693 
	C287.859680,461.345154 304.155914,467.351929 312.957977,479.562775 
	C321.417572,491.298462 321.833069,507.711243 313.844452,519.487061 
	C309.534760,525.839844 303.888977,530.633667 296.250854,533.489441 
M257.271027,498.731415 
	C257.288330,499.895538 257.330627,501.059937 257.319000,502.223785 
	C257.217499,512.394165 268.285004,526.683350 284.607880,525.648804 
	C297.349548,524.841248 308.922119,513.011414 308.645233,500.212708 
	C308.345093,486.337524 297.487396,475.084747 283.761047,474.423065 
	C270.435638,473.780731 259.045441,483.871643 257.271027,498.731415 
z"/>
<path fill="#000000" opacity="1.000000" stroke="none" 
	d="
M371.250214,670.329529 
	C368.797577,670.005493 366.420685,671.152710 364.923157,668.924927 
	C364.994629,668.493103 364.930176,668.026062 365.116913,667.879700 
	C370.061462,664.007324 370.321320,662.318237 367.008301,656.598816 
	C366.292297,655.362854 365.534546,654.345703 364.021790,654.331848 
	C359.535034,654.290771 355.046844,654.243164 350.561096,654.314697 
	C347.711884,654.360107 347.467499,656.970642 346.559448,658.816406 
	C345.689026,660.585754 345.027161,662.457703 344.431427,663.901978 
	C345.234375,666.947510 349.168976,665.662048 349.541443,668.577698 
	C346.156464,671.049683 336.588989,671.055420 333.282379,668.685852 
	C344.303040,658.923645 346.100189,644.199158 352.828186,632.135132 
	C354.195282,629.683838 355.017242,626.932190 356.151764,624.345825 
	C356.689331,623.120361 357.333374,621.903015 358.968964,621.913696 
	C360.630890,621.924622 361.183105,623.226685 361.707733,624.432922 
	C364.887665,631.744629 368.039581,639.068542 371.176880,646.398621 
	C373.398193,651.588684 375.841034,656.704956 377.685516,662.027283 
	C378.803284,665.252747 382.125000,666.148621 384.486542,669.075378 
	C379.833923,671.148987 375.676453,669.981323 371.250214,670.329529 
M358.319336,650.682678 
	C360.038239,650.436523 362.029938,651.304260 363.737793,648.999695 
	C361.875641,644.284180 360.296875,639.160095 357.110504,633.789978 
	C354.678772,639.570557 352.539307,644.656433 350.401184,649.739075 
	C353.161255,651.144897 355.357513,650.476074 358.319336,650.682678 
z"/>
<path fill="#000000" opacity="1.000000" stroke="none" 
	d="
M170.347198,654.221924 
	C170.354858,657.175964 170.402649,659.670837 170.356201,662.163818 
	C170.312332,664.518860 170.546127,666.542236 173.632904,666.635925 
	C174.674667,666.667419 175.643494,667.242737 175.521454,668.474426 
	C175.467880,669.015137 174.866287,669.922729 174.472870,669.945068 
	C168.888153,670.261108 163.240723,671.095459 157.390671,668.749695 
	C165.148087,666.036255 163.117233,659.847534 162.738907,654.857361 
	C162.374054,650.044678 166.405624,643.345459 157.924057,641.345825 
	C161.781876,636.205078 168.990860,635.998169 171.050949,640.768433 
	C173.293777,639.715088 174.820023,637.582886 177.285263,636.834595 
	C184.338379,634.693604 191.459732,639.255737 192.025711,646.646606 
	C192.342117,650.778503 192.014130,654.955811 192.131531,659.108276 
	C192.219406,662.215515 191.032776,665.800476 195.920975,666.991455 
	C197.781998,667.445007 197.312012,669.760498 195.328995,670.004333 
	C192.397919,670.364868 189.359360,670.275391 186.414200,669.948425 
	C184.449051,669.730225 184.741547,667.729553 184.731339,666.291687 
	C184.697113,661.470276 184.776901,656.648132 184.761765,651.826416 
	C184.742737,645.768433 182.591873,642.705750 178.239441,642.433533 
	C173.525772,642.138672 170.820480,645.172363 170.385239,651.268677 
	C170.326126,652.096436 170.356949,652.930725 170.347198,654.221924 
z"/>
<path fill="#000000" opacity="1.000000" stroke="none" 
	d="
M101.865303,638.344543 
	C103.709312,637.974792 105.252960,637.908936 106.643318,637.413208 
	C109.751862,636.304749 111.516029,637.114258 111.435982,641.510071 
	C115.188240,638.076294 118.631592,635.825684 123.099525,636.357605 
	C128.279602,636.974304 132.027771,640.367126 132.837891,645.589233 
	C133.242599,648.198059 133.001999,650.900391 133.194275,653.550232 
	C133.585953,658.948120 130.352005,665.490906 139.636429,668.427063 
	C134.514420,671.061890 130.769485,670.531799 127.161301,669.828369 
	C125.348122,669.474976 125.731979,667.423584 125.722740,665.984863 
	C125.688553,660.659424 125.818550,655.331848 125.714981,650.008362 
	C125.624756,645.370544 122.882622,642.455627 118.890396,642.436768 
	C114.735054,642.417114 111.716423,645.088562 111.439476,649.575867 
	C111.163139,654.053223 111.617691,658.582947 111.227333,663.043823 
	C110.858688,667.256470 115.843681,665.712585 116.582085,668.498657 
	C113.212997,671.127991 102.072006,671.106323 98.424538,668.183411 
	C105.881126,666.202515 103.675209,660.310730 103.894745,655.382568 
	C103.990944,653.223206 103.767937,651.044128 103.945007,648.895020 
	C104.259682,645.075684 103.932327,641.813782 99.147545,641.787720 
	C98.435242,639.253174 100.181526,639.029297 101.865303,638.344543 
z"/>
<path fill="#000000" opacity="1.000000" stroke="none" 
	d="
M481.723755,642.771545 
	C482.764709,647.381042 483.116760,651.599976 482.550964,655.984253 
	C481.909912,660.951782 481.022400,666.361389 489.422058,668.469604 
	C484.044952,671.011597 480.168396,670.626343 476.412445,669.771118 
	C474.724976,669.386841 474.948090,667.355408 474.987885,665.880310 
	C475.122467,660.895691 475.417969,655.913452 475.453094,650.928833 
	C475.474640,647.872681 474.909698,644.944031 471.833038,643.237244 
	C469.167145,641.758301 466.659790,642.390259 464.268219,643.785583 
	C462.469238,644.835144 461.225189,646.387146 461.212067,648.614624 
	C461.183716,653.436157 461.195221,658.257935 461.170502,663.079529 
	C461.159119,665.294800 462.299011,666.407715 464.424225,666.742310 
	C465.504486,666.912476 466.340088,667.574097 466.153564,668.747803 
	C466.073151,669.254150 465.356354,670.049316 464.926178,670.050903 
	C459.526703,670.071167 454.059692,671.318298 448.765656,669.304016 
	C448.582184,669.234192 448.568024,668.719543 448.323273,667.911377 
	C455.599579,666.517212 453.654175,660.782349 453.763428,655.930725 
	C453.804596,654.102234 453.724823,652.270691 453.780670,650.442993 
	C453.907501,646.294739 454.461273,641.942444 447.730042,641.454834 
	C451.153259,637.305969 455.354309,637.561279 459.015106,637.069397 
	C461.059143,636.794678 460.724304,639.469727 461.191711,641.600708 
	C465.092590,638.023010 469.118530,635.475464 474.284790,636.803406 
	C477.456207,637.618591 480.045746,639.353760 481.723755,642.771545 
z"/>
<path fill="#000000" opacity="1.000000" stroke="none" 
	d="
M574.078613,665.002869 
	C580.778442,663.897217 582.604553,661.926697 582.776428,655.941895 
	C582.843201,653.616577 582.634644,651.276794 582.807129,648.962646 
	C583.094238,645.109619 582.500977,641.981506 577.709412,641.790466 
	C579.249878,638.130920 582.675659,636.923706 590.128662,637.387268 
	C590.128662,644.249268 590.011536,651.175049 590.177917,658.094116 
	C590.261169,661.554688 588.498291,665.950928 594.341980,667.096924 
	C595.773560,667.377686 595.511719,669.255249 593.881104,670.049805 
	C590.938110,671.483643 583.771851,669.932800 581.815857,667.399475 
	C579.647522,668.860352 577.783997,670.822571 574.996033,671.269836 
	C566.241638,672.674194 561.706665,668.851440 561.673401,659.898438 
	C561.660461,656.407471 561.597839,652.908569 561.797913,649.427124 
	C562.022888,645.511963 561.787903,642.049622 556.724121,641.619202 
	C558.567749,638.186890 561.112183,637.301880 568.792053,637.324768 
	C569.812988,642.498413 568.903687,647.784058 569.034241,653.021912 
	C569.092224,655.348022 569.148193,657.674072 569.205566,660.000183 
	C569.277771,662.930664 570.688660,664.662720 574.078613,665.002869 
z"/>
<path fill="#000000" opacity="1.000000" stroke="none" 
	d="
M224.055420,668.086426 
	C215.951462,659.548340 216.228333,646.928406 224.370544,640.287170 
	C231.746078,634.271362 243.235489,635.256226 248.536484,642.358582 
	C254.584915,650.462341 252.256226,663.462158 243.496155,668.770386 
	C237.176971,672.599609 230.626038,672.908752 224.055420,668.086426 
M237.061508,667.582764 
	C243.909988,664.334595 246.258560,653.733948 241.957291,645.523926 
	C240.068893,641.919556 237.044876,639.925598 233.052353,640.463623 
	C228.888199,641.024902 226.882019,644.195984 226.366226,648.102173 
	C225.821411,652.228149 225.904221,656.379395 227.344086,660.394165 
	C228.869751,664.648254 231.432236,667.579163 237.061508,667.582764 
z"/>
<path fill="#000000" opacity="1.000000" stroke="none" 
	d="
M682.129456,654.246460 
	C679.220337,654.444153 676.683838,653.685974 674.349792,654.868774 
	C674.107239,660.657715 676.259399,664.037292 680.789001,665.974976 
	C685.554688,668.013550 689.347168,664.351257 694.330566,663.897827 
	C693.811768,669.359802 689.613037,670.337402 686.099243,671.087219 
	C675.621399,673.322937 667.850830,668.177490 666.033325,658.322388 
	C664.042969,647.529602 670.285828,638.135193 680.595459,636.408936 
	C688.339966,635.112061 695.189148,640.932922 695.469971,648.787109 
	C695.588806,652.110352 694.431580,653.878418 691.074829,654.007996 
	C688.249634,654.117065 685.422424,654.171997 682.129456,654.246460 
M674.428650,645.835022 
	C674.249634,647.256653 673.345093,648.687500 674.893555,650.651184 
	C677.914551,650.651184 681.362671,650.654663 684.810730,650.650024 
	C687.255310,650.646729 687.951233,649.292786 687.642517,647.067627 
	C687.194153,643.835999 685.785522,641.337708 682.413208,640.561340 
	C678.457642,639.650574 676.133667,641.731934 674.428650,645.835022 
z"/>
<path fill="#000000" opacity="1.000000" stroke="none" 
	d="
M61.850815,634.240234 
	C62.794777,628.928589 60.045959,626.291626 55.416786,624.938110 
	C58.318058,621.593079 61.324471,622.912964 63.947655,622.731812 
	C67.092033,622.514709 70.264526,622.667236 73.423714,622.723450 
	C74.447906,622.741638 75.479889,623.054565 75.677742,624.255432 
	C75.871925,625.433838 75.119385,626.348450 74.064903,626.357666 
	C69.667686,626.396179 70.135330,629.533630 70.128990,632.334717 
	C70.107903,641.650818 70.151558,650.967041 70.131134,660.283142 
	C70.124664,663.234131 70.095695,666.064575 74.088005,666.514893 
	C75.128952,666.632324 75.909737,667.522095 75.680977,668.667542 
	C75.575798,669.194275 74.891739,669.993652 74.450943,670.006470 
	C68.327148,670.184082 62.128864,671.206116 56.065449,669.449951 
	C56.240376,668.389099 56.212345,667.830566 56.357986,667.780823 
	C62.185211,665.791748 62.077950,661.107849 61.936394,656.165405 
	C61.731663,649.017273 61.865604,641.859497 61.850815,634.240234 
z"/>
<path fill="#000000" opacity="1.000000" stroke="none" 
	d="
M412.698639,661.468994 
	C412.718689,652.860779 412.784821,644.696045 412.721283,636.532410 
	C412.684448,631.798340 414.388611,626.151672 406.633911,625.280640 
	C410.067902,621.877136 423.175262,621.747131 426.625214,624.526001 
	C426.493530,625.763672 425.601532,626.272583 424.560852,626.290039 
	C421.613861,626.339600 421.016327,628.128906 421.025818,630.601501 
	C421.066101,641.096558 421.079224,651.591919 421.055267,662.086975 
	C421.049133,664.768005 421.706360,666.659851 424.919220,666.600952 
	C426.016968,666.580933 426.819550,667.393372 426.651184,668.565796 
	C426.574280,669.100952 425.959259,669.953430 425.537262,669.985229 
	C419.258850,670.458740 412.988708,670.598022 405.900513,669.861267 
	C408.175323,665.831482 413.693542,666.692932 412.698639,661.468994 
z"/>
<path fill="#000000" opacity="1.000000" stroke="none" 
	d="
M508.933105,666.805786 
	C509.132080,664.168823 508.580139,661.712402 510.547607,660.228394 
	C512.232544,660.124634 512.795410,660.982300 512.901367,662.010925 
	C513.412720,666.973999 517.145996,667.534058 520.882690,667.627319 
	C524.083191,667.707153 526.930237,666.414673 527.554016,662.875366 
	C528.236267,659.004333 525.101318,658.277405 522.360413,657.483582 
	C520.448547,656.929993 518.459290,656.641724 516.551514,656.076416 
	C512.396362,654.845093 509.352814,652.343506 509.040771,647.796326 
	C508.721985,643.151306 511.271790,639.891174 515.255676,637.856079 
	C519.461487,635.707458 523.830688,635.748840 528.333069,637.186096 
	C531.274780,638.125122 532.214783,639.991943 532.000854,642.815735 
	C531.887329,644.313843 531.998291,646.134583 530.344177,646.669983 
	C528.278870,647.338562 528.244080,645.328918 527.537964,644.057495 
	C525.550110,640.478027 522.392151,639.580750 518.642151,640.929688 
	C516.795105,641.594238 515.636475,643.087280 515.521301,645.079407 
	C515.396851,647.232117 516.865479,648.461914 518.659607,649.095825 
	C520.682861,649.810486 522.804749,650.266724 524.906250,650.734070 
	C529.294983,651.709778 533.380310,653.022644 534.127625,658.360168 
	C534.738953,662.726135 531.952515,667.638550 527.071716,669.965637 
	C522.045166,672.362183 516.728149,671.664429 511.497345,670.507629 
	C509.840546,670.141174 509.047089,668.911072 508.933105,666.805786 
z"/>
<path fill="#000000" opacity="1.000000" stroke="none" 
	d="
M287.154480,643.633057 
	C289.395905,649.283020 291.557465,654.608582 294.119476,660.920837 
	C297.572601,655.154419 299.393860,649.861389 301.400757,644.667969 
	C302.584015,641.605835 298.877563,641.726074 298.062866,639.957581 
	C300.613739,637.069275 307.071259,636.740967 311.261688,639.288513 
	C303.859955,646.384338 301.538635,656.213989 297.308624,665.021362 
	C296.281921,667.159058 296.048645,670.230835 292.709076,670.138855 
	C289.709167,670.056274 289.385895,667.305908 288.481567,665.237305 
	C285.951233,659.449402 283.483429,653.633789 280.910431,647.865051 
	C279.525238,644.759399 279.031738,640.919250 274.197968,640.685486 
	C277.506958,636.828796 287.759674,636.703857 290.932617,639.723206 
	C290.874634,642.239746 286.730133,640.359070 287.154480,643.633057 
z"/>
<path fill="#000000" opacity="1.000000" stroke="none" 
	d="
M631.354492,647.719116 
	C629.587097,652.960327 630.486267,657.977539 630.426636,662.930359 
	C630.393616,665.668945 632.226318,666.576782 634.731506,666.635071 
	C635.985657,666.664307 637.101013,667.168701 636.864441,668.731506 
	C636.679871,669.951111 635.602966,670.212524 634.596375,670.222778 
	C629.779663,670.271912 624.962158,670.276306 620.145142,670.253601 
	C619.102600,670.248657 618.081604,669.901611 617.879456,668.721802 
	C617.674866,667.526855 618.496704,666.844849 619.544739,666.614075 
	C623.046265,665.842896 623.097656,663.176819 623.083191,660.417358 
	C623.064941,656.928345 623.045410,653.438293 623.107056,649.950073 
	C623.176270,646.033203 623.468262,642.043152 617.304565,641.448303 
	C620.318909,636.934753 624.742798,637.764771 628.254395,637.083191 
	C631.112671,636.528503 629.569031,640.233521 630.978149,641.562195 
	C634.154236,638.797119 637.222839,634.072388 641.796936,637.347046 
	C644.765137,639.471985 643.374451,643.584167 641.450928,647.138855 
	C637.920593,644.794556 634.346130,641.130554 631.354492,647.719116 
z"/>
<path fill="#000000" opacity="1.000000" stroke="none" 
	d="
M222.005463,519.077515 
	C214.409988,518.828369 207.227402,519.352478 200.211761,517.476990 
	C200.766022,514.899658 202.260696,515.113770 203.519241,515.076416 
	C215.944077,514.708191 228.369537,514.357971 240.796021,514.051086 
	C242.274841,514.014526 243.816742,514.057678 245.229004,514.437378 
	C246.940414,514.897583 248.244034,516.193237 247.962616,518.066162 
	C247.663574,520.056152 245.866882,519.778992 244.376740,519.734375 
	C237.085846,519.516113 229.794891,519.300049 222.005463,519.077515 
z"/>
<path fill="#000000" opacity="1.000000" stroke="none" 
	d="
M726.621460,671.126953 
	C722.986938,671.622070 721.200256,670.085815 720.851990,666.962524 
	C720.602661,664.725952 721.811951,663.136047 723.841736,662.399841 
	C726.522827,661.427490 728.395996,663.064636 729.558899,665.075500 
	C731.183472,667.884888 729.269714,669.626892 726.621460,671.126953 
z"/>
<path fill="#000000" opacity="1.000000" stroke="none" 
	d="
M21.781567,664.812744 
	C23.899862,662.062500 26.130396,660.996704 28.722866,663.431580 
	C30.722027,665.309143 30.779737,667.527588 29.077930,669.688110 
	C27.772844,671.344971 25.887619,671.766663 24.135166,670.912109 
	C21.848831,669.797302 20.667562,667.847168 21.781567,664.812744 
z"/>
</svg>